#!OML:ASF F:\VICON\USERDATA\INSTALL\rory3\rory3.ASF
:FULLY-SPECIFIED
:DEGREES
784
root -7.68862 17.6016 11.5263 6.03968 -59.8361 8.07598
lowerback 28.9388 0.765307 2.73151
upperback 8.1797 1.45361 2.2054
thorax -6.74243 0.477312 0.409748
lowerneck -12.0072 -6.77316 -11.468
upperneck 32.8544 -9.56431 5.95406
head 14.0875 -4.92386 2.82968
rclavicle -3.65764e-014 2.38542e-014
rhumerus -0.321669 40.2266 -71.0046
rradius 57.9837
rwrist 29.9538
rhand -41.1685 14.483
rfingers 7.12502
rthumb -14.094 -15.019
lclavicle -3.65764e-014 2.38542e-014
lhumerus -16.9172 -35.3426 98.6713
lradius 64.1233
lwrist 8.2575
lhand -30.7802 43.0864
lfingers 7.12502
lthumb -4.07093 73.0272
rfemur -41.9003 -13.2812 18.5278
rtibia 39.8393
rfoot -8.18979 1.29072
rtoes 9.64144
lfemur -36.5499 -0.699105 -22.4886
ltibia 29.8427
lfoot -10.6708 -8.01744
ltoes -23.9375
785
root -7.69445 17.5695 11.5077 6.77802 -59.7042 7.98496
lowerback 29.0203 0.820489 2.89056
upperback 8.20846 1.57329 2.27565
thorax -6.74447 0.532327 0.355865
lowerneck -12.2122 -6.88726 -11.4232
upperneck 32.6699 -9.69639 5.98931
head 14.0654 -4.95682 2.80581
rclavicle -4.37326e-014 -3.18055e-014
rhumerus 0.808688 39.4679 -70.432
rradius 56.5926
rwrist 29.9819
rhand -41.5862 14.7162
rfingers 7.12502
rthumb -14.4965 -14.7574
lclavicle -4.37326e-014 -3.18055e-014
lhumerus -17.1041 -36.1448 98.5938
lradius 64.354
lwrist 7.88456
lhand -31.1648 42.2434
lfingers 7.12502
lthumb -4.4423 72.1768
rfemur -43.152 -13.8195 19.0154
rtibia 40.6373
rfoot -8.58595 1.68604
rtoes 8.99117
lfemur -37.5365 -0.8264 -22.4798
ltibia 30.0155
lfoot -10.1693 -8.08825
ltoes -22.3882
786
root -7.70121 17.5324 11.4903 7.34943 -59.6762 8.04204
lowerback 29.1658 0.923033 2.84085
upperback 8.20236 1.70294 2.38218
thorax -6.82461 0.59162 0.458191
lowerneck -12.3503 -6.98175 -11.4174
upperneck 32.4643 -9.78231 5.97801
head 14.0137 -4.98309 2.77921
rclavicle -2.38542e-014 2.38542e-014
rhumerus 1.86088 38.8207 -69.8333
rradius 55.2203
rwrist 29.8577
rhand -41.3678 15.2499
rfingers 7.12502
rthumb -14.286 -14.2387
lclavicle -2.38542e-014 2.38542e-014
lhumerus -17.4941 -36.8685 98.6633
lradius 64.6957
lwrist 7.33111
lhand -31.5071 41.4366
lfingers 7.12502
lthumb -4.77276 71.3629
rfemur -44.3693 -14.2515 19.3906
rtibia 41.4396
rfoot -9.01066 2.12296
rtoes 8.22274
lfemur -38.4864 -0.826348 -22.5926
ltibia 30.3848
lfoot -9.88193 -8.35201
ltoes -21.1692
787
root -7.71094 17.4926 11.4783 7.65731 -59.7369 8.20056
lowerback 29.3829 1.04601 2.69894
upperback 8.28529 1.82322 2.47766
thorax -6.84201 0.645002 0.604054
lowerneck -12.5425 -7.07279 -11.5678
upperneck 32.3317 -9.86746 6.09485
head 14.0256 -5.01175 2.82976
rclavicle 4.13472e-014 4.77083e-015
rhumerus 3.04105 38.3275 -69.114
rradius 53.9523
rwrist 29.6516
rhand -41.464 15.5767
rfingers 7.12502
rthumb -14.3787 -13.9052
lclavicle 4.13472e-014 4.77083e-015
lhumerus -17.8698 -37.6141 98.6547
lradius 65.0651
lwrist 6.51183
lhand -32.0537 40.3278
lfingers 7.12502
lthumb -5.30061 70.2415
rfemur -45.4459 -15.0434 19.8202
rtibia 42.2412
rfoot -9.46725 3.04148
rtoes 8.3225
lfemur -39.2135 -0.958524 -22.6542
ltibia 30.9013
lfoot -9.58989 -8.73656
ltoes -16.7418
788
root -7.72328 17.4603 11.4712 7.85766 -59.7842 8.14787
lowerback 29.8513 1.19238 2.72938
upperback 8.43692 2.02067 2.59161
thorax -6.89448 0.729742 0.642815
lowerneck -12.7619 -7.23449 -11.6433
upperneck 32.2339 -10.036 6.09932
head 14.0572 -5.07909 2.80672
rclavicle -7.31528e-014 -4.77083e-015
rhumerus 4.17955 37.6799 -68.4148
rradius 52.6506
rwrist 29.5401
rhand -41.902 15.8588
rfingers 7.12502
rthumb -14.8007 -13.5926
lclavicle -7.31528e-014 -4.77083e-015
lhumerus -18.2615 -38.5332 98.73
lradius 65.471
lwrist 5.6946
lhand -33.0901 39.3844
lfingers 7.12502
lthumb -6.30115 69.2707
rfemur -46.0427 -15.2296 19.9825
rtibia 43.0869
rfoot -10.0198 3.3914
rtoes 9.09048
lfemur -39.6282 -1.34401 -22.4505
ltibia 31.6267
lfoot -9.40942 -8.93536
ltoes -11.3641
789
root -7.73054 17.4255 11.4622 8.13064 -59.6952 8.02626
lowerback 30.3118 1.35672 2.99921
upperback 8.60957 2.29891 2.60285
thorax -6.902 0.853276 0.399977
lowerneck -13.0399 -7.47658 -11.1487
upperneck 32.0463 -10.3775 5.87756
head 14.0243 -5.17623 2.56374
rclavicle -5.24792e-014 5.56597e-014
rhumerus 5.22357 36.5063 -67.9123
rradius 51.2776
rwrist 29.3873
rhand -42.0023 16.6145
rfingers 7.12502
rthumb -14.8973 -12.8299
lclavicle -5.24792e-014 5.56597e-014
lhumerus -18.5501 -39.9371 98.7033
lradius 65.9172
lwrist 5.16515
lhand -34.0313 38.1188
lfingers 7.12502
lthumb -7.20982 67.976
rfemur -46.5114 -14.4515 19.6904
rtibia 44.0201
rfoot -10.6667 2.64735
rtoes 9.90483
lfemur -40.2063 -1.73242 -22.2175
ltibia 32.6473
lfoot -9.64238 -9.10424
ltoes -8.99905
790
root -7.73724 17.3752 11.4501 8.37192 -59.5252 7.9952
lowerback 30.7546 1.51291 3.26627
upperback 8.71845 2.56922 2.54587
thorax -6.96578 0.974841 0.082595
lowerneck -13.1267 -7.70806 -10.5554
upperneck 31.7523 -10.8126 5.85365
head 13.9151 -5.28427 2.37457
rclavicle -6.04305e-014 4.13472e-014
rhumerus 6.16398 35.1536 -67.6761
rradius 49.7753
rwrist 29.1878
rhand -42.2266 17.0989
rfingers 7.12502
rthumb -15.1135 -12.3293
lclavicle -6.04305e-014 4.13472e-014
lhumerus -18.9612 -41.4581 98.6321
lradius 66.316
lwrist 4.51187
lhand -34.3331 36.0854
lfingers 7.12502
lthumb -7.50106 65.9324
rfemur -47.2888 -14.7156 19.7949
rtibia 45.0607
rfoot -11.3075 2.96027
rtoes 10.843
lfemur -41.0759 -1.86199 -22.1353
ltibia 33.9754
lfoot -10.1183 -9.23938
ltoes -8.63726
791
root -7.7472 17.3117 11.4366 8.59253 -59.3096 8.03092
lowerback 31.1493 1.53766 3.33097
upperback 8.7668 2.62379 2.50803
thorax -7.08799 0.995383 -0.0227495
lowerneck -13.1787 -7.80101 -10.2686
upperneck 31.5098 -11.0491 6.04307
head 13.8367 -5.32314 2.35834
rclavicle 6.20208e-014 -6.52014e-014
rhumerus 7.2172 34.2325 -67.5892
rradius 48.2189
rwrist 29.1647
rhand -42.7544 16.9228
rfingers 7.12502
rthumb -15.6219 -12.4664
lclavicle 6.20208e-014 -6.52014e-014
lhumerus -19.4907 -42.5253 98.4656
lradius 66.8031
lwrist 3.80857
lhand -34.5831 34.5179
lfingers 7.12502
lthumb -7.74244 64.3561
rfemur -48.5222 -16.708 20.6986
rtibia 46.2486
rfoot -11.9871 4.96063
rtoes 11.3557
lfemur -42.1726 -1.9134 -22.1262
ltibia 35.5284
lfoot -10.7478 -9.10367
ltoes -9.71195
792
root -7.7561 17.2417 11.4204 9.03362 -59.0755 7.91679
lowerback 31.3445 1.48103 3.41893
upperback 8.84233 2.57774 2.51267
thorax -7.08864 0.970851 -0.0542126
lowerneck -13.3817 -7.83702 -10.2225
upperneck 31.3853 -11.1473 6.26993
head 13.8501 -5.32325 2.41577
rclavicle -3.18055e-015 3.97569e-014
rhumerus 8.38475 33.5121 -67.4576
rradius 46.8444
rwrist 29.2219
rhand -43.0551 16.9114
rfingers 7.12502
rthumb -15.9114 -12.455
lclavicle -3.18055e-015 3.97569e-014
lhumerus -19.8968 -43.371 98.2079
lradius 67.3869
lwrist 3.48462
lhand -34.9812 33.1512
lfingers 7.12502
lthumb -8.12663 62.9749
rfemur -49.905 -18.2917 21.6294
rtibia 47.5643
rfoot -12.7753 6.43175
rtoes 10.3104
lfemur -43.4915 -1.99588 -21.9892
ltibia 37.2189
lfoot -11.1939 -9.06255
ltoes -10.127
